<svg width="78" height="78" viewBox="0 0 78 78" fill="none" xmlns="http://www.w3.org/2000/svg">
<g id="&#208;&#152;&#208;&#189;&#209;&#129;&#209;&#130;">
<g id="Ellipse 12" filter="url(#filter0_d_1458_6705)">
<circle cx="39" cy="39" r="21" fill="white"/>
</g>
<g id="inst">
<g id="instagram-glyph-1 1">
<g clip-path="url(#clip0_1458_6705)">
<path id="Vector" d="M35.4457 38.9999C35.4457 37.0373 37.0363 35.4458 38.9989 35.4458C40.9616 35.4458 42.5531 37.0373 42.5531 38.9999C42.5531 40.9626 40.9616 42.5541 38.9989 42.5541C37.0363 42.5541 35.4457 40.9626 35.4457 38.9999ZM33.5244 38.9999C33.5244 42.0236 35.9753 44.4745 38.9989 44.4745C42.0226 44.4745 44.4735 42.0236 44.4735 38.9999C44.4735 35.9763 42.0226 33.5253 38.9989 33.5253C35.9753 33.5253 33.5244 35.9763 33.5244 38.9999ZM43.4108 33.3083C43.4108 34.0145 43.9835 34.588 44.6905 34.588C45.3967 34.588 45.9703 34.0145 45.9703 33.3083C45.9703 32.6021 45.3976 32.0294 44.6905 32.0294C43.9835 32.0294 43.4108 32.6021 43.4108 33.3083ZM34.6913 47.6781C33.6518 47.6308 33.0869 47.4577 32.7114 47.3113C32.2136 47.1175 31.8588 46.8867 31.4851 46.5138C31.1122 46.1409 30.8805 45.7861 30.6876 45.2883C30.5412 44.9129 30.3681 44.3479 30.3207 43.3085C30.2691 42.1846 30.2587 41.847 30.2587 38.9999C30.2587 36.1528 30.2699 35.8161 30.3207 34.6914C30.3681 33.6519 30.5421 33.0878 30.6876 32.7115C30.8814 32.2137 31.1122 31.8589 31.4851 31.4852C31.8579 31.1123 32.2128 30.8806 32.7114 30.6877C33.0869 30.5413 33.6518 30.3682 34.6913 30.3208C35.8151 30.2692 36.1527 30.2588 38.9989 30.2588C41.846 30.2588 42.1828 30.27 43.3075 30.3208C44.3469 30.3682 44.911 30.5422 45.2874 30.6877C45.7851 30.8806 46.1399 31.1123 46.5137 31.4852C46.8866 31.8581 47.1174 32.2137 47.3112 32.7115C47.4576 33.087 47.6307 33.6519 47.678 34.6914C47.7297 35.8161 47.74 36.1528 47.74 38.9999C47.74 41.8462 47.7297 42.1837 47.678 43.3085C47.6307 44.3479 47.4567 44.9129 47.3112 45.2883C47.1174 45.7861 46.8866 46.1409 46.5137 46.5138C46.1408 46.8867 45.7851 47.1175 45.2874 47.3113C44.9119 47.4577 44.3469 47.6308 43.3075 47.6781C42.1836 47.7298 41.846 47.7401 38.9989 47.7401C36.1527 47.7401 35.8151 47.7298 34.6913 47.6781ZM34.6034 28.403C33.4684 28.4546 32.6933 28.6346 32.0155 28.8982C31.3145 29.1703 30.7203 29.5354 30.127 30.1279C29.5345 30.7204 29.1693 31.3147 28.8972 32.0165C28.6337 32.6943 28.4537 33.4694 28.402 34.6044C28.3495 35.7412 28.3374 36.1046 28.3374 38.9999C28.3374 41.8952 28.3495 42.2587 28.402 43.3954C28.4537 44.5305 28.6337 45.3056 28.8972 45.9833C29.1693 46.6843 29.5336 47.2794 30.127 47.8719C30.7195 48.4644 31.3137 48.8287 32.0155 49.1017C32.6942 49.3652 33.4684 49.5452 34.6034 49.5969C35.7411 49.6485 36.1036 49.6615 38.9989 49.6615C41.8951 49.6615 42.2577 49.6494 43.3945 49.5969C44.5295 49.5452 45.3046 49.3652 45.9823 49.1017C46.6833 48.8287 47.2776 48.4644 47.8709 47.8719C48.4634 47.2794 48.8277 46.6843 49.1007 45.9833C49.3642 45.3056 49.5451 44.5305 49.5959 43.3954C49.6476 42.2578 49.6596 41.8952 49.6596 38.9999C49.6596 36.1046 49.6476 35.7412 49.5959 34.6044C49.5442 33.4694 49.3642 32.6943 49.1007 32.0165C48.8277 31.3155 48.4634 30.7213 47.8709 30.1279C47.2784 29.5354 46.6833 29.1703 45.9832 28.8982C45.3046 28.6346 44.5295 28.4538 43.3953 28.403C42.2585 28.3513 41.8951 28.3384 38.9998 28.3384C36.1036 28.3384 35.7411 28.3504 34.6034 28.403Z" fill="url(#paint0_linear_1458_6705)"/>
</g>
</g>
</g>
</g>
<defs>
<filter id="filter0_d_1458_6705" x="0" y="0" width="78" height="78" filterUnits="userSpaceOnUse" color-interpolation-filters="sRGB">
<feFlood flood-opacity="0" result="BackgroundImageFix"/>
<feColorMatrix in="SourceAlpha" type="matrix" values="0 0 0 0 0 0 0 0 0 0 0 0 0 0 0 0 0 0 127 0" result="hardAlpha"/>
<feOffset/>
<feGaussianBlur stdDeviation="9"/>
<feComposite in2="hardAlpha" operator="out"/>
<feColorMatrix type="matrix" values="0 0 0 0 0 0 0 0 0 0 0 0 0 0 0 0 0 0 0.08 0"/>
<feBlend mode="normal" in2="BackgroundImageFix" result="effect1_dropShadow_1458_6705"/>
<feBlend mode="normal" in="SourceGraphic" in2="effect1_dropShadow_1458_6705" result="shape"/>
</filter>
<linearGradient id="paint0_linear_1458_6705" x1="38.9985" y1="28.3384" x2="38.9985" y2="49.6615" gradientUnits="userSpaceOnUse">
<stop stop-color="#889A68"/>
<stop offset="1" stop-color="#F8DB3D"/>
</linearGradient>
<clipPath id="clip0_1458_6705">
<rect x="28.3379" y="28.3384" width="21.3231" height="21.3231" fill="white"/>
</clipPath>
</defs>
</svg>
