<svg width="16" height="14" viewBox="0 0 16 14" fill="none" xmlns="http://www.w3.org/2000/svg">
<path id="Vector" d="M7.99722 13.6199C7.7692 13.6199 7.55231 13.5423 7.37991 13.4027C6.73479 12.8751 6.11192 12.3838 5.56135 11.9494H5.55579C3.943 10.6719 2.55266 9.5703 1.58498 8.47904C0.500521 7.26365 0 6.11032 0 4.85355C0 3.63299 0.450469 2.50035 1.26799 1.67802C2.09663 0.84018 3.23114 0.379883 4.46576 0.379883C5.38895 0.379883 6.23427 0.653992 6.97949 1.1867C7.35766 1.45563 7.69691 1.78663 7.99722 2.17452C8.29753 1.78663 8.63677 1.45563 9.01495 1.1867C9.76017 0.653992 10.6055 0.379883 11.5287 0.379883C12.7633 0.379883 13.9034 0.84018 14.732 1.67802C15.5495 2.50552 16 3.63299 16 4.85355C16 6.11032 15.4939 7.26365 14.415 8.47904C13.4473 9.56513 12.057 10.6667 10.4442 11.9494C9.89364 12.3838 9.27077 12.8803 8.62009 13.4078C8.44213 13.5423 8.22523 13.6199 7.99722 13.6199Z" fill="#889A68"/>
</svg>
