<svg width="15" height="14" viewBox="0 0 15 14" fill="none" xmlns="http://www.w3.org/2000/svg">
<g id="Group 17">
<path id="Vector" d="M7.43716 13.6199C7.22511 13.6199 7.02341 13.5423 6.86308 13.4027C6.26314 12.8751 5.68389 12.3838 5.17188 11.9494H5.1667C3.66686 10.6719 2.37389 9.5703 1.47398 8.47904C0.465469 7.26365 0 6.11032 0 4.85355C0 3.63299 0.418922 2.50035 1.17919 1.67802C1.9498 0.84018 3.00486 0.379883 4.15302 0.379883C5.01155 0.379883 5.79767 0.653992 6.4907 1.1867C6.84239 1.45563 7.15788 1.78663 7.43716 2.17452C7.71644 1.78663 8.03192 1.45563 8.38361 1.1867C9.07664 0.653992 9.86277 0.379883 10.7213 0.379883C11.8695 0.379883 12.9297 0.84018 13.7003 1.67802C14.4606 2.50552 14.8795 3.63299 14.8795 4.85355C14.8795 6.11032 14.4088 7.26365 13.4055 8.47904C12.5056 9.56513 11.2126 10.6667 9.71278 11.9494C9.20077 12.3838 8.62152 12.8803 8.01641 13.4078C7.85091 13.5423 7.6492 13.6199 7.43716 13.6199Z" fill="#F8DB3D"/>
</g>
</svg>
