<svg width="22" height="22" viewBox="0 0 22 22" fill="none" xmlns="http://www.w3.org/2000/svg">
<g id="tick 1" clip-path="url(#clip0_1440_7762)">
<path id="Vector" d="M11.6659 22C11.2376 22 10.8079 22 10.3797 22C10.013 21.9541 9.64346 21.9212 9.27823 21.8596C6.98513 21.4758 4.98708 20.4903 3.34281 18.8461C0.87354 16.3811 -0.212137 13.3847 0.104399 9.9143C0.316379 7.5854 1.22732 5.52719 2.78422 3.77693C4.85245 1.45519 7.45492 0.203367 10.5601 0.0515436C12.7258 -0.0530137 14.7625 0.451153 16.6159 1.58266C19.4661 3.32147 21.2149 5.83943 21.8294 9.12941C21.9067 9.54048 21.944 9.96014 21.9998 10.3755C21.9998 10.8038 21.9998 11.2334 21.9998 11.6617C21.9827 11.8164 21.964 11.9696 21.9468 12.1243C21.6847 14.4876 20.7824 16.5716 19.1897 18.339C17.4996 20.2153 15.4041 21.387 12.912 21.8281C12.4995 21.9026 12.0812 21.9441 11.6659 22ZM9.35844 12.8004C8.89867 12.3392 8.4919 11.9281 8.08226 11.5213C7.64541 11.0888 7.22289 10.6405 6.76312 10.2351C6.25179 9.78397 5.43682 9.78969 4.89685 10.2036C4.10909 10.8066 4.05036 11.8679 4.7751 12.5999C5.90804 13.7414 7.04672 14.8758 8.18539 16.0101C8.29138 16.1147 8.40883 16.2135 8.5363 16.2894C9.18799 16.6762 9.91989 16.5687 10.4899 16.0001C12.7487 13.7428 15.006 11.4827 17.2633 9.22394C17.3392 9.14803 17.4093 9.06639 17.4738 8.98188C18.0997 8.16548 17.7015 6.90649 16.7204 6.60141C16.0644 6.3966 15.5159 6.58136 15.0418 7.05688C13.1998 8.90167 11.3536 10.745 9.51169 12.5898C9.45726 12.6457 9.41859 12.7173 9.35844 12.8004Z" fill="#889A68"/>
</g>
<defs>
<clipPath id="clip0_1440_7762">
<rect width="22" height="22" fill="white"/>
</clipPath>
</defs>
</svg>
