<svg width="22" height="22" viewBox="0 0 22 22" fill="none" xmlns="http://www.w3.org/2000/svg">
<path id="Vector" d="M11 0C4.928 0 0 4.928 0 11C0 17.072 4.928 22 11 22C17.072 22 22 17.072 22 11C22 4.928 17.072 0 11 0ZM12.1 15.5C12.1 16.0523 11.6523 16.5 11.1 16.5H10.9C10.3477 16.5 9.9 16.0523 9.9 15.5V15.3C9.9 14.7477 10.3477 14.3 10.9 14.3H11.1C11.6523 14.3 12.1 14.7477 12.1 15.3V15.5ZM12.1 11.1C12.1 11.6523 11.6523 12.1 11.1 12.1H10.9C10.3477 12.1 9.9 11.6523 9.9 11.1V6.5C9.9 5.94771 10.3477 5.5 10.9 5.5H11.1C11.6523 5.5 12.1 5.94772 12.1 6.5V11.1Z" fill="#889A68"/>
</svg>
