<svg width="22" height="22" viewBox="0 0 22 22" fill="none" xmlns="http://www.w3.org/2000/svg">
<path id="Vector" d="M11 0C4.917 0 0 4.917 0 11C0 17.083 4.917 22 11 22C17.083 22 22 17.083 22 11C22 4.917 17.083 0 11 0ZM15.7929 14.2419C16.1834 14.6324 16.1834 15.2656 15.7929 15.6561L15.6561 15.7929C15.2656 16.1834 14.6324 16.1834 14.2419 15.7929L11 12.551L7.75811 15.7929C7.36758 16.1834 6.73442 16.1834 6.34389 15.7929L6.20711 15.6561C5.81658 15.2656 5.81658 14.6324 6.20711 14.2419L9.449 11L6.20711 7.75811C5.81658 7.36758 5.81658 6.73442 6.20711 6.34389L6.34389 6.20711C6.73442 5.81658 7.36758 5.81658 7.75811 6.20711L11 9.449L14.2419 6.20711C14.6324 5.81658 15.2656 5.81658 15.6561 6.20711L15.7929 6.34389C16.1834 6.73442 16.1834 7.36758 15.7929 7.75811L12.551 11L14.5255 12.9745L15.7929 14.2419Z" fill="#889A68"/>
</svg>
