<svg width="78" height="78" viewBox="0 0 78 78" fill="none" xmlns="http://www.w3.org/2000/svg">
<g id="&#208;&#146;&#208;&#154;">
<g id="Ellipse 13" filter="url(#filter0_d_1458_6706)">
<circle cx="39" cy="39" r="21" fill="white"/>
</g>
<g id="Frame 71">
<g id="vk">
<g id="Frame" clip-path="url(#clip0_1458_6706)">
<path id="Vector" fill-rule="evenodd" clip-rule="evenodd" d="M51.6678 44.1904C51.0855 43.0379 50.3213 41.9828 49.4035 41.0638C49.0952 40.7095 48.7337 40.3551 48.4467 40.0842L48.0427 39.7298C49.2949 38.0221 50.3636 36.192 51.232 34.2688V34.1958V34.1125C51.3338 33.8233 51.3666 33.5151 51.3279 33.2116C51.2891 32.9081 51.18 32.6173 51.0087 32.3616C50.7988 32.1003 50.528 31.892 50.2192 31.7542C49.9103 31.6164 49.5723 31.5531 49.2334 31.5695H46.9052C46.4093 31.5501 45.9192 31.6812 45.502 31.9447C45.0777 32.2167 44.7536 32.6148 44.5771 33.0807C44.0622 34.281 43.4171 35.4236 42.6529 36.4886V33.7373C42.6784 33.2231 42.5329 32.7147 42.2383 32.2886C42.0432 32.0501 41.7929 31.8605 41.5083 31.7354C41.2236 31.6104 40.9127 31.5535 40.6012 31.5695H36.8485C36.3522 31.5577 35.8705 31.7344 35.504 32.0626C35.1375 32.3908 34.9146 32.8452 34.8818 33.3308V33.4142C34.8953 33.818 35.0365 34.2077 35.2858 34.5293C35.3469 34.6207 35.4143 34.7077 35.4878 34.7899L35.5834 34.9566C35.7531 35.1908 35.8425 35.4719 35.8386 35.7591V37.2911C35.0807 36.0448 34.4573 34.7245 33.9782 33.3517C33.8249 32.9032 33.5664 32.4963 33.2234 32.1636C32.7851 31.7907 32.2195 31.5935 31.6394 31.6112H29.2049C28.9037 31.5989 28.6031 31.6471 28.3216 31.7528C28.04 31.8586 27.7835 32.0196 27.5678 32.2261C27.2307 32.5875 27.0447 33.06 27.0469 33.5497V33.6956V33.8311C27.7208 36.8781 29.1033 39.7313 31.0866 42.1685C31.9973 43.5852 33.2386 44.7691 34.7082 45.6226C36.1777 46.4761 37.8332 46.9747 39.5381 47.0772H39.6338C40.3723 47.123 41.1091 46.964 41.7599 46.6187C42.0462 46.4222 42.2766 46.1572 42.4291 45.849C42.5817 45.5408 42.6514 45.1994 42.6317 44.8574V43.6693C42.8443 43.836 43.11 44.0653 43.429 44.3676C43.7479 44.6698 44.12 45.0658 44.3751 45.3576L44.5133 45.5035C44.7259 45.7328 44.9279 45.9517 45.1086 46.1288C45.3567 46.3928 45.6477 46.6147 45.9697 46.7854C46.3471 46.9784 46.7667 47.0785 47.1923 47.0772H49.6374C49.9622 47.0973 50.2877 47.0491 50.5921 46.9359C50.8964 46.8226 51.1726 46.647 51.4021 46.4207C51.6261 46.1443 51.7748 45.8166 51.8343 45.4684C51.8938 45.1203 51.8621 44.763 51.7423 44.4301V44.3363L51.6678 44.1904ZM45.587 44.3363C45.3106 44.0445 44.9811 43.6901 44.5239 43.2941C43.0888 41.9393 42.3978 41.6996 41.9407 41.6996C41.8087 41.6845 41.6749 41.6992 41.5497 41.7425C41.4244 41.7859 41.3108 41.8567 41.2178 41.9497C41.136 42.0562 41.0846 42.1821 41.0689 42.3145C41.0507 42.4668 41.0507 42.6207 41.0689 42.773V44.8574C41.0689 45.1283 41.0689 45.2326 40.8988 45.3159C40.4962 45.4947 40.0517 45.5631 39.6125 45.514C38.1657 45.4236 36.7613 44.9987 35.5141 44.2742C34.2669 43.5496 33.2123 42.5459 32.4367 41.3452C30.5673 39.0655 29.2677 36.3887 28.6415 33.5288C28.6365 33.4804 28.6415 33.4315 28.6561 33.3849C28.6707 33.3384 28.6947 33.2952 28.7266 33.2579C28.7266 33.2579 28.8967 33.1328 29.2049 33.1328H31.6288C31.7974 33.1256 31.9632 33.1773 32.0965 33.2787C32.2719 33.4575 32.3997 33.6758 32.4686 33.9144C32.9986 35.4903 33.712 37.001 34.5948 38.4167C34.906 38.9221 35.2617 39.3999 35.6578 39.8445C35.8045 40.0008 35.9686 40.1407 36.1469 40.2613C36.293 40.3655 36.4662 40.4269 36.6465 40.4385C36.7529 40.442 36.8586 40.4206 36.9548 40.376C37.0708 40.3314 37.1656 40.2459 37.2206 40.1363C37.3402 39.8639 37.3877 39.5664 37.3588 39.2713V35.7174C37.3491 35.1166 37.1484 34.5336 36.7847 34.0499L36.6253 33.8415L36.5615 33.6539C36.5109 33.5863 36.478 33.5076 36.4658 33.4246C36.4782 33.3437 36.5197 33.2698 36.5827 33.2162C36.6486 33.1629 36.7312 33.1335 36.8166 33.1328H40.6012C40.8244 33.1328 40.8988 33.1328 40.9307 33.237C41.0137 33.3904 41.0471 33.5649 41.0264 33.7373V38.4584C41.0264 39.0211 41.2922 39.3963 41.6749 39.3963C42.0576 39.3963 42.4403 39.1358 42.9931 38.5939C44.2408 37.1086 45.2581 35.4511 46.0123 33.6747C46.0666 33.5152 46.1755 33.379 46.3205 33.2891C46.4611 33.1959 46.6297 33.1518 46.7989 33.1641H49.244C49.5736 33.1641 49.6799 33.2475 49.7224 33.2996C49.749 33.3605 49.7627 33.4261 49.7627 33.4924C49.7627 33.5586 49.749 33.6242 49.7224 33.6852C48.8572 35.5968 47.7882 37.4134 46.5332 39.1045C46.3861 39.2852 46.2907 39.501 46.2568 39.7298C46.255 39.9967 46.3577 40.2541 46.5438 40.4489C46.7592 40.728 47.0013 40.9862 47.2667 41.2202C47.5875 41.5137 47.8927 41.8233 48.1809 42.1477C48.9808 42.936 49.6482 43.8435 50.1583 44.8365C50.2433 45.1075 50.1583 45.2534 50.1583 45.3264C50.0823 45.3887 49.9939 45.4348 49.8987 45.4617C49.8035 45.4886 49.7036 45.4958 49.6055 45.4827H47.2135C47.0477 45.4879 46.8832 45.452 46.7352 45.3785C46.5606 45.269 46.4 45.1396 46.2568 44.9929C46.1079 44.847 45.9378 44.6698 45.7359 44.4405L45.587 44.3363Z" fill="#889A68"/>
</g>
</g>
</g>
</g>
<defs>
<filter id="filter0_d_1458_6706" x="0" y="0" width="78" height="78" filterUnits="userSpaceOnUse" color-interpolation-filters="sRGB">
<feFlood flood-opacity="0" result="BackgroundImageFix"/>
<feColorMatrix in="SourceAlpha" type="matrix" values="0 0 0 0 0 0 0 0 0 0 0 0 0 0 0 0 0 0 127 0" result="hardAlpha"/>
<feOffset/>
<feGaussianBlur stdDeviation="9"/>
<feComposite in2="hardAlpha" operator="out"/>
<feColorMatrix type="matrix" values="0 0 0 0 0 0 0 0 0 0 0 0 0 0 0 0 0 0 0.08 0"/>
<feBlend mode="normal" in2="BackgroundImageFix" result="effect1_dropShadow_1458_6706"/>
<feBlend mode="normal" in="SourceGraphic" in2="effect1_dropShadow_1458_6706" result="shape"/>
</filter>
<clipPath id="clip0_1458_6706">
<rect width="24.8123" height="15.5077" fill="white" transform="translate(27.0464 31.5693)"/>
</clipPath>
</defs>
</svg>
