<svg width="33" height="33" viewBox="0 0 33 33" fill="none" xmlns="http://www.w3.org/2000/svg">
<g id="Frame" clip-path="url(#clip0_1768_268)">
<path id="Vector" d="M23.9214 19.737C23.5199 19.5307 21.5201 18.551 21.1481 18.4184C20.7761 18.2785 20.5036 18.2122 20.2347 18.6247C19.9658 19.0372 19.1887 19.9432 18.9457 20.2194C18.7099 20.492 18.4705 20.5251 18.0691 20.3226C15.6825 19.1293 14.1172 18.1938 12.5446 15.4941C12.1284 14.7759 12.9608 14.8275 13.7379 13.2769C13.8705 13.0044 13.8042 12.7723 13.7011 12.5661C13.5979 12.3598 12.7877 10.3636 12.4488 9.54969C12.1211 8.75784 11.7822 8.86833 11.5355 8.8536C11.2997 8.83887 11.0309 8.83887 10.7583 8.83887C10.4858 8.83887 10.0475 8.94199 9.67554 9.34344C9.30356 9.75226 8.25391 10.7356 8.25391 12.7318C8.25391 14.728 9.70869 16.6616 9.90757 16.9342C10.1138 17.2067 12.7693 21.3023 16.8463 23.0664C19.4244 24.1787 20.4336 24.2745 21.7226 24.083C22.5071 23.9651 24.1239 23.1033 24.4591 22.1494C24.7943 21.1955 24.7943 20.3852 24.6948 20.2158C24.5954 20.0353 24.3228 19.9322 23.9214 19.737Z" fill="#889A68"/>
<path id="Vector_2" d="M31.7181 10.1063C30.4611 7.10847 28.3456 4.54942 25.6377 2.75112C22.9298 0.952834 19.7505 -0.00435208 16.4999 1.4876e-05H16.4263C13.6146 0.0137988 10.8531 0.745534 8.40357 2.12584C5.95402 3.50614 3.89764 5.48926 2.42941 7.88715C0.961175 10.285 0.12976 13.0182 0.0139988 15.8275C-0.101762 18.6369 0.501968 21.4292 1.76794 23.9397V29.5379C1.76794 29.9873 1.94644 30.4182 2.26416 30.7359C2.58188 31.0536 3.0128 31.2321 3.46212 31.2321H9.06396C11.3485 32.3824 13.8685 32.9875 16.4263 33H16.5036C20.8555 33.0107 25.034 31.2955 28.1235 28.2305C30.4558 25.9086 32.0433 22.9445 32.6836 19.7163C33.3238 16.4882 32.9877 13.1425 31.7181 10.1063ZM26.1531 26.2379C23.5713 28.794 20.1461 30.2009 16.4999 30.2009H16.4373C14.2139 30.1902 12.0263 29.6404 10.0621 28.5988L9.75268 28.433H4.56702V23.2473L4.40128 22.9379C3.35964 20.9736 2.80989 18.786 2.79918 16.5626C2.78445 12.8906 4.18767 9.44331 6.76209 6.84677C9.3365 4.25024 12.7691 2.81385 16.441 2.79912H16.5036C18.309 2.79661 20.097 3.15134 21.7647 3.84286C23.4323 4.53438 24.9467 5.54903 26.2206 6.82836C27.4944 8.1077 28.5025 9.62643 29.1869 11.2971C29.8712 12.9677 30.2183 14.7573 30.208 16.5626C30.1859 20.2309 28.7459 23.6672 26.1531 26.2379Z" fill="#889A68"/>
</g>
<defs>
<clipPath id="clip0_1768_268">
<rect width="33" height="33" fill="white"/>
</clipPath>
</defs>
</svg>
