<svg width="164" height="40" viewBox="0 0 164 40" fill="none" xmlns="http://www.w3.org/2000/svg">
<mask id="mask0_1825_13571" style="mask-type:luminance" maskUnits="userSpaceOnUse" x="0" y="0" width="39" height="40">
<path d="M0 0.745117H38.5089V39.254H0V0.745117Z" fill="white"/>
</mask>
<g mask="url(#mask0_1825_13571)">
<path d="M19.2697 0.745117C8.62645 0.745117 0 9.3736 0 20.0168C0 30.658 8.62645 39.2865 19.2697 39.2865C29.9129 39.2865 38.5414 30.658 38.5414 20.0168C38.5414 9.3736 29.9129 0.745117 19.2697 0.745117ZM31.7614 32.5065C30.1379 34.1301 28.2488 35.403 26.1469 36.2928C23.968 37.213 21.6553 37.6812 19.2697 37.6812C16.884 37.6812 14.5713 37.213 12.3944 36.2928C10.2905 35.403 8.40147 34.1301 6.77996 32.5065C5.15641 30.885 3.88353 28.9939 2.99372 26.892C2.07148 24.7151 1.6053 22.4025 1.6053 20.0168C1.6053 17.6291 2.07148 15.3185 2.99372 13.1396C3.88353 11.0377 5.15641 9.14659 6.77996 7.52507C8.40147 5.90153 10.2905 4.62864 12.3944 3.73884C14.5713 2.81863 16.884 2.35244 19.2697 2.35244C21.6553 2.35244 23.968 2.81863 26.1469 3.73884C28.2488 4.62864 30.1379 5.90153 31.7614 7.52507C33.3849 9.14659 34.6578 11.0377 35.5476 13.1396C36.4678 15.3185 36.934 17.6291 36.934 20.0168C36.934 22.4025 36.4678 24.7151 35.5476 26.892C34.6578 28.9939 33.3849 30.885 31.7614 32.5065Z" fill="#65864F"/>
</g>
<mask id="mask1_1825_13571" style="mask-type:luminance" maskUnits="userSpaceOnUse" x="15" y="5" width="14" height="14">
<path d="M15.9697 5.97656H28.423V18.9487H15.9697V5.97656Z" fill="white"/>
</mask>
<g mask="url(#mask1_1825_13571)">
<mask id="mask2_1825_13571" style="mask-type:luminance" maskUnits="userSpaceOnUse" x="-1" y="-1" width="40" height="41">
<path d="M-0.895996 9.55192L28.727 -0.112305L38.3913 29.5107L8.76823 39.1749L-0.895996 9.55192Z" fill="white"/>
</mask>
<g mask="url(#mask2_1825_13571)">
<mask id="mask3_1825_13571" style="mask-type:luminance" maskUnits="userSpaceOnUse" x="-1" y="-1" width="40" height="41">
<path d="M-0.895996 9.55192L28.727 -0.112305L38.3913 29.5107L8.76823 39.1749L-0.895996 9.55192Z" fill="white"/>
</mask>
<g mask="url(#mask3_1825_13571)">
<path d="M26.4166 9.60835C24.941 8.89286 23.1877 9.40364 22.3101 10.7373C22.8107 9.21919 22.1236 7.52876 20.646 6.81529C19.0387 6.03494 17.103 6.70787 16.3247 8.31722C15.218 10.8042 17.0219 14.3411 18.6576 18.5206C22.9506 17.2112 26.6557 16.3397 27.9205 13.9297C28.6988 12.3224 28.0259 10.3867 26.4186 9.60835" fill="#65864F"/>
<path d="M26.4166 9.60835C24.941 8.89286 23.1877 9.40364 22.3101 10.7373C22.8107 9.21919 22.1236 7.52876 20.646 6.81529C19.0387 6.03494 17.103 6.70787 16.3247 8.31722C15.218 10.8042 17.0219 14.3411 18.6576 18.5206C22.9506 17.2112 26.6557 16.3397 27.9205 13.9297C28.6988 12.3224 28.0259 10.3867 26.4186 9.60835" fill="#65864F"/>
</g>
</g>
</g>
<mask id="mask4_1825_13571" style="mask-type:luminance" maskUnits="userSpaceOnUse" x="7" y="10" width="12" height="14">
<path d="M7.14893 10.1279H18.5644V23.1H7.14893V10.1279Z" fill="white"/>
</mask>
<g mask="url(#mask4_1825_13571)">
<mask id="mask5_1825_13571" style="mask-type:luminance" maskUnits="userSpaceOnUse" x="-1" y="-1" width="40" height="41">
<path d="M-0.895996 9.55192L28.727 -0.112305L38.3913 29.5107L8.76823 39.1749L-0.895996 9.55192Z" fill="white"/>
</mask>
<g mask="url(#mask5_1825_13571)">
<mask id="mask6_1825_13571" style="mask-type:luminance" maskUnits="userSpaceOnUse" x="-1" y="-1" width="40" height="41">
<path d="M-0.895996 9.55192L28.727 -0.112305L38.3913 29.5107L8.76823 39.1749L-0.895996 9.55192Z" fill="white"/>
</mask>
<g mask="url(#mask6_1825_13571)">
<path d="M9.06027 12.7469C8.6103 14.3259 9.41498 15.9636 10.8804 16.6C9.29944 16.3669 7.75292 17.3358 7.30295 18.9147C6.81447 20.6315 7.80968 22.4213 9.52848 22.9118C12.1675 23.5725 14.539 21.0653 18.3738 18.7344C16.3429 14.7312 15.6497 11.3524 13.0573 10.5234C11.3385 10.0329 9.54875 11.0301 9.06027 12.7469Z" fill="#65864F"/>
<path d="M9.06027 12.7469C8.6103 14.3259 9.41498 15.9636 10.8804 16.6C9.29944 16.3669 7.75292 17.3358 7.30295 18.9147C6.81447 20.6315 7.80968 22.4213 9.52848 22.9118C12.1675 23.5725 14.539 21.0653 18.3738 18.7344C16.3429 14.7312 15.6497 11.3524 13.0573 10.5234C11.3385 10.0329 9.54875 11.0301 9.06027 12.7469Z" fill="#65864F"/>
</g>
</g>
</g>
<mask id="mask7_1825_13571" style="mask-type:luminance" maskUnits="userSpaceOnUse" x="16" y="17" width="5" height="16">
<path d="M16.4893 17.9102H20.6403V32.9578H16.4893V17.9102Z" fill="white"/>
</mask>
<g mask="url(#mask7_1825_13571)">
<mask id="mask8_1825_13571" style="mask-type:luminance" maskUnits="userSpaceOnUse" x="-1" y="-1" width="40" height="41">
<path d="M-0.895508 9.55192L28.7275 -0.112305L38.3917 29.5107L8.76871 39.1749L-0.895508 9.55192Z" fill="white"/>
</mask>
<g mask="url(#mask8_1825_13571)">
<mask id="mask9_1825_13571" style="mask-type:luminance" maskUnits="userSpaceOnUse" x="-1" y="-1" width="40" height="41">
<path d="M-0.895508 9.55192L28.7275 -0.112305L38.3917 29.5107L8.76871 39.1749L-0.895508 9.55192Z" fill="white"/>
</mask>
<g mask="url(#mask9_1825_13571)">
<path d="M18.1735 31.7913C17.8451 31.1974 17.0749 27.7862 16.9351 26.7383C16.2986 22.3075 17.4094 19.934 17.9363 19.0827C18.0539 18.8516 18.2829 18.5415 18.4796 18.3652C18.8728 18.1747 18.9153 18.4625 18.7451 18.9307C18.3478 19.8043 17.8614 21.9974 17.8897 22.9906C17.9505 24.9607 18.4309 26.8923 19.1525 28.7226C19.8416 30.6238 20.7639 31.7548 19.7342 32.3507C18.9903 32.7663 18.5039 32.3913 18.1735 31.7913Z" fill="#65864F"/>
</g>
</g>
</g>
<mask id="mask10_1825_13571" style="mask-type:luminance" maskUnits="userSpaceOnUse" x="18" y="16" width="12" height="13">
<path d="M18.5645 16.873H29.9799V28.8074H18.5645V16.873Z" fill="white"/>
</mask>
<g mask="url(#mask10_1825_13571)">
<mask id="mask11_1825_13571" style="mask-type:luminance" maskUnits="userSpaceOnUse" x="-1" y="-1" width="40" height="41">
<path d="M-0.895508 9.55289L28.7275 -0.111328L38.3917 29.5117L8.76871 39.1759L-0.895508 9.55289Z" fill="white"/>
</mask>
<g mask="url(#mask11_1825_13571)">
<mask id="mask12_1825_13571" style="mask-type:luminance" maskUnits="userSpaceOnUse" x="-1" y="-1" width="40" height="41">
<path d="M-0.89502 9.55387L28.728 -0.110352L38.3922 29.5127L8.7692 39.1769L-0.89502 9.55387Z" fill="white"/>
</mask>
<g mask="url(#mask12_1825_13571)">
<path d="M29.322 21.9072C28.4342 23.2876 26.6728 23.7659 25.2277 23.0828C26.4458 24.1186 26.7397 25.9185 25.8499 27.2988C24.8831 28.8007 22.8826 29.2345 21.3806 28.2676C19.1409 26.7211 19.4571 23.2855 18.6768 18.8649C23.0224 17.7481 26.0202 16.0374 28.3552 17.4359C29.8571 18.4048 30.2888 20.4053 29.322 21.9072Z" fill="#65864F"/>
</g>
</g>
</g>
<mask id="mask13_1825_13571" style="mask-type:luminance" maskUnits="userSpaceOnUse" x="17" y="17" width="4" height="4">
<path d="M17.061 17.3916H20.1743V20.5049H17.061V17.3916Z" fill="white"/>
</mask>
<g mask="url(#mask13_1825_13571)">
<mask id="mask14_1825_13571" style="mask-type:luminance" maskUnits="userSpaceOnUse" x="-1" y="-1" width="40" height="41">
<path d="M-0.842285 9.55192L28.7807 -0.112305L38.445 29.5107L8.82194 39.1749L-0.842285 9.55192Z" fill="white"/>
</mask>
<g mask="url(#mask14_1825_13571)">
<mask id="mask15_1825_13571" style="mask-type:luminance" maskUnits="userSpaceOnUse" x="-1" y="-1" width="40" height="41">
<path d="M-0.842285 9.55192L28.7807 -0.112305L38.445 29.5107L8.82194 39.1749L-0.842285 9.55192Z" fill="white"/>
</mask>
<g mask="url(#mask15_1825_13571)">
<path d="M19.8078 18.4909C20.0044 19.0929 19.674 19.7395 19.072 19.9361C18.47 20.1327 17.8234 19.8044 17.6268 19.2024C17.4302 18.6004 17.7586 17.9538 18.3606 17.7572C18.9625 17.5606 19.6111 17.8889 19.8078 18.4909Z" fill="#65864F"/>
</g>
</g>
</g>
<path d="M45.7695 20.5846V3.66406H48.2748V18.2658H56.0986V20.5846H45.7695Z" fill="#65864F"/>
<path d="M69.2729 9.15134V20.583H67.319L66.9622 19.2696C66.5609 19.7946 66.0501 20.1918 65.4299 20.4614C64.8137 20.731 64.1854 20.8668 63.5489 20.8668C62.7544 20.8668 62.0105 20.7127 61.3194 20.4046C60.6262 20.0966 60.0222 19.6729 59.5033 19.1318C58.9844 18.5865 58.5729 17.9481 58.2709 17.2184C57.9669 16.4846 57.8169 15.7023 57.8169 14.8753C57.8169 14.0483 57.9669 13.27 58.2709 12.5403C58.5729 11.8066 58.9844 11.1681 59.5033 10.6269C60.0222 10.0878 60.6262 9.66212 61.3194 9.35403C62.0105 9.04189 62.7544 8.88379 63.5489 8.88379C64.1854 8.88379 64.7975 9.00946 65.3813 9.25674C65.9691 9.50605 66.496 9.89318 66.9622 10.4161L67.319 9.15134H69.2729ZM63.5489 18.8156C64.007 18.8156 64.4428 18.7142 64.8543 18.5075C65.2698 18.3028 65.6285 18.021 65.9326 17.6643C66.2346 17.3035 66.4717 16.8839 66.646 16.4076C66.8244 15.9272 66.9136 15.4165 66.9136 14.8753C66.9136 14.3361 66.8244 13.8274 66.646 13.3511C66.4717 12.8768 66.2346 12.4592 65.9326 12.1025C65.6285 11.7417 65.2698 11.4579 64.8543 11.2512C64.4428 11.0465 64.007 10.9431 63.5489 10.9431C63.0888 10.9431 62.651 11.0465 62.2355 11.2512C61.818 11.4579 61.4592 11.7417 61.1572 12.1025C60.8593 12.4592 60.6221 12.8768 60.4437 13.3511C60.2694 13.8274 60.1843 14.3361 60.1843 14.8753C60.1843 15.4165 60.2694 15.9272 60.4437 16.4076C60.6221 16.8839 60.8593 17.3035 61.1572 17.6643C61.4592 18.021 61.818 18.3028 62.2355 18.5075C62.651 18.7142 63.0888 18.8156 63.5489 18.8156Z" fill="#65864F"/>
<path d="M77.4591 18.1987C77.6051 18.069 77.7307 17.9271 77.8402 17.769C77.9537 17.6068 78.0105 17.4244 78.0105 17.2177C78.0105 16.9643 77.9172 16.7515 77.7348 16.5772C77.5504 16.3988 77.3254 16.2508 77.0619 16.1313C76.8024 16.0137 76.5288 15.9205 76.243 15.8556C75.9552 15.7907 75.718 15.734 75.5295 15.6853C75.0046 15.5617 74.51 15.4077 74.0459 15.2232C73.5858 15.0408 73.1824 14.8178 72.8378 14.5584C72.4973 14.2949 72.2257 13.9827 72.0271 13.626C71.8325 13.2693 71.7352 12.8436 71.7352 12.345C71.7352 11.8869 71.8447 11.4532 72.0676 11.0478C72.2885 10.6424 72.5865 10.2857 72.9594 9.97761C73.3364 9.66547 73.7743 9.41616 74.2729 9.23171C74.7755 9.04929 75.3046 8.95605 75.862 8.95605C76.3525 8.95605 76.8207 9.02902 77.2646 9.17496C77.7125 9.31684 78.1159 9.51142 78.4726 9.7587C78.8334 10.008 79.1374 10.308 79.3806 10.6586C79.6279 11.0052 79.7941 11.3944 79.8752 11.8261L77.7997 12.3207C77.7024 11.9437 77.4936 11.6275 77.1754 11.3721C76.8551 11.1187 76.4173 10.9911 75.862 10.9911C75.6714 10.9911 75.4728 11.0194 75.262 11.0721C75.0552 11.1269 74.8647 11.21 74.6864 11.3235C74.512 11.4329 74.3661 11.5667 74.2485 11.7288C74.129 11.8869 74.0702 12.0673 74.0702 12.2721C74.0702 12.4991 74.1371 12.6936 74.2729 12.8558C74.4066 13.0139 74.5688 13.1436 74.7593 13.245C74.9539 13.3483 75.1606 13.4314 75.3836 13.4963C75.6045 13.5571 75.8133 13.6098 76.0079 13.6584C76.8511 13.8692 77.5504 14.0942 78.1078 14.3314C78.6631 14.5705 79.109 14.832 79.4455 15.1178C79.7799 15.4056 80.0151 15.7178 80.1509 16.0583C80.2846 16.3988 80.3535 16.7859 80.3535 17.2177C80.3535 17.7264 80.236 18.2048 80.0049 18.6527C79.7718 19.0966 79.4536 19.4837 79.0482 19.8121C78.6428 20.1364 78.1564 20.3918 77.5889 20.5742C77.0254 20.7526 76.4173 20.8418 75.7647 20.8418C74.7796 20.8418 73.9019 20.6006 73.1297 20.1202C72.3554 19.6337 71.8345 18.9851 71.5649 18.1744L73.527 17.2906C73.7803 17.848 74.1046 18.2271 74.4999 18.4257C74.8992 18.6203 75.3532 18.7176 75.862 18.7176C76.4984 18.7176 77.0315 18.5453 77.4591 18.1987Z" fill="#65864F"/>
<path d="M88.3207 20.8668C87.4937 20.8668 86.7174 20.7127 85.9938 20.4046C85.2682 20.0966 84.6358 19.6729 84.0966 19.1318C83.5555 18.5865 83.1278 17.9481 82.8156 17.2184C82.5076 16.4846 82.3535 15.7023 82.3535 14.8753C82.3535 14.0483 82.4995 13.27 82.7913 12.5403C83.0873 11.8066 83.4886 11.1681 83.9912 10.6269C84.4939 10.0878 85.0777 9.66212 85.7425 9.35403C86.4114 9.04189 87.1289 8.88379 87.891 8.88379C88.6693 8.88379 89.3868 9.02162 90.0476 9.29728C90.7124 9.56888 91.284 9.99047 91.7664 10.5621C92.2529 11.1357 92.6299 11.8633 92.9015 12.743C93.171 13.6247 93.3068 14.6787 93.3068 15.9049H84.8101C84.9236 16.3225 85.0979 16.7076 85.3371 17.0643C85.5742 17.4211 85.856 17.7332 86.1803 17.9967C86.5086 18.2561 86.8775 18.4588 87.2829 18.6048C87.6883 18.7466 88.1139 18.8156 88.5639 18.8156C89.1639 18.8156 89.7233 18.7061 90.2422 18.4832C90.7611 18.2622 91.2029 17.9683 91.5718 17.5994L92.9988 19.0345C92.4414 19.5919 91.7603 20.0378 90.9556 20.3722C90.155 20.7006 89.2774 20.8668 88.3207 20.8668ZM87.891 10.9918C87.5221 10.9918 87.1775 11.0647 86.8532 11.2107C86.5289 11.3525 86.2249 11.5492 85.9452 11.8025C85.6695 12.0579 85.4303 12.3599 85.2317 12.7106C85.031 13.0572 84.8831 13.4382 84.7858 13.8537H90.8259C90.7935 13.4706 90.7043 13.1058 90.5584 12.7592C90.4165 12.4086 90.2199 12.1005 89.9665 11.8349C89.7111 11.5714 89.4152 11.3647 89.0747 11.2188C88.7342 11.0688 88.3389 10.9918 87.891 10.9918Z" fill="#65864F"/>
<path d="M102.955 11.2755C102.841 11.2269 102.728 11.1782 102.614 11.1296C102.521 11.0972 102.412 11.0688 102.282 11.0404C102.156 11.008 102.023 10.9918 101.877 10.9918C101.417 10.9918 100.987 11.0688 100.588 11.2188C100.192 11.3647 99.8518 11.5674 99.566 11.8268C99.2782 12.0822 99.0512 12.3782 98.885 12.7187C98.7167 13.0592 98.6336 13.422 98.6336 13.8051L98.6093 20.583H96.2905V9.15134H98.1309L98.6093 10.4161C98.9275 9.95196 99.343 9.58104 99.8579 9.30538C100.377 9.02567 101.025 8.88379 101.804 8.88379C102.316 8.88379 102.898 8.95676 103.547 9.10269L102.955 11.2755Z" fill="#65864F"/>
<path d="M111.782 20.5846V18.5577L120.684 5.90175H112.568V3.66406H123.692V5.69096L114.936 18.2658H124.17V20.5846H111.782Z" fill="#65864F"/>
<path d="M132.26 20.8668C131.465 20.8668 130.721 20.7127 130.03 20.4046C129.337 20.0966 128.733 19.6729 128.214 19.1318C127.695 18.5865 127.284 17.9481 126.982 17.2184C126.684 16.4846 126.536 15.7023 126.536 14.8753C126.536 14.0483 126.684 13.27 126.982 12.5403C127.284 11.8066 127.695 11.1681 128.214 10.6269C128.733 10.0878 129.337 9.66212 130.03 9.35403C130.721 9.04189 131.465 8.88379 132.26 8.88379C133.038 8.88379 133.776 9.04189 134.473 9.35403C135.174 9.66212 135.786 10.0878 136.305 10.6269C136.824 11.1681 137.234 11.8066 137.538 12.5403C137.84 13.27 137.992 14.0483 137.992 14.8753C137.992 15.7023 137.84 16.4846 137.538 17.2184C137.234 17.9481 136.824 18.5865 136.305 19.1318C135.786 19.6729 135.174 20.0966 134.473 20.4046C133.776 20.7127 133.038 20.8668 132.26 20.8668ZM132.26 10.9674C131.799 10.9674 131.362 11.0708 130.946 11.2755C130.535 11.4823 130.172 11.7599 129.86 12.1106C129.552 12.4633 129.308 12.8768 129.13 13.3511C128.956 13.8274 128.871 14.3361 128.871 14.8753C128.871 15.4165 128.956 15.9272 129.13 16.4076C129.308 16.8839 129.552 17.3035 129.86 17.6643C130.172 18.021 130.535 18.3028 130.946 18.5075C131.362 18.7142 131.799 18.8156 132.26 18.8156C132.718 18.8156 133.155 18.7142 133.573 18.5075C133.989 18.3028 134.345 18.021 134.643 17.6643C134.945 17.3035 135.182 16.8839 135.357 16.4076C135.535 15.9272 135.624 15.4165 135.624 14.8753C135.624 14.3361 135.535 13.8274 135.357 13.3511C135.182 12.8768 134.945 12.4633 134.643 12.1106C134.345 11.7599 133.989 11.4823 133.573 11.2755C133.155 11.0708 132.718 10.9674 132.26 10.9674Z" fill="#65864F"/>
<path d="M142.622 20.583H140.304V9.15134H142.144L142.622 10.1486C142.999 9.78778 143.46 9.4878 144.001 9.24863C144.54 9.0054 145.13 8.88379 145.768 8.88379C146.184 8.88379 146.654 8.94865 147.179 9.07837C147.702 9.20809 148.192 9.44929 148.646 9.79994C149.1 10.1465 149.481 10.631 149.79 11.2512C150.102 11.8735 150.26 12.6761 150.26 13.6591V20.583H148.063V13.6348C148.063 13.1443 147.986 12.7268 147.836 12.3863C147.684 12.0417 147.483 11.766 147.236 11.5593C146.992 11.3546 146.713 11.2086 146.401 11.1215C146.093 11.0363 145.77 10.9918 145.436 10.9918C145.18 10.9918 144.889 11.0404 144.56 11.1377C144.236 11.2309 143.93 11.385 143.644 11.5998C143.356 11.8106 143.113 12.0822 142.914 12.4106C142.72 12.7349 142.622 13.1362 142.622 13.6105V20.583Z" fill="#65864F"/>
<path d="M159.014 20.8668C158.187 20.8668 157.41 20.7127 156.687 20.4046C155.961 20.0966 155.329 19.6729 154.79 19.1318C154.248 18.5865 153.821 17.9481 153.509 17.2184C153.2 16.4846 153.046 15.7023 153.046 14.8753C153.046 14.0483 153.192 13.27 153.484 12.5403C153.78 11.8066 154.181 11.1681 154.684 10.6269C155.187 10.0878 155.771 9.66212 156.435 9.35403C157.104 9.04189 157.822 8.88379 158.584 8.88379C159.362 8.88379 160.08 9.02162 160.74 9.29728C161.405 9.56888 161.977 9.99047 162.459 10.5621C162.946 11.1357 163.323 11.8633 163.594 12.743C163.864 13.6247 164 14.6787 164 15.9049H155.503C155.616 16.3225 155.791 16.7076 156.03 17.0643C156.267 17.4211 156.549 17.7332 156.873 17.9967C157.202 18.2561 157.57 18.4588 157.976 18.6048C158.381 18.7466 158.807 18.8156 159.257 18.8156C159.857 18.8156 160.416 18.7061 160.935 18.4832C161.454 18.2622 161.896 17.9683 162.265 17.5994L163.692 19.0345C163.134 19.5919 162.453 20.0378 161.649 20.3722C160.848 20.7006 159.97 20.8668 159.014 20.8668ZM158.584 10.9918C158.215 10.9918 157.87 11.0647 157.546 11.2107C157.222 11.3525 156.918 11.5492 156.638 11.8025C156.362 12.0579 156.123 12.3599 155.925 12.7106C155.724 13.0572 155.576 13.4382 155.479 13.8537H161.519C161.486 13.4706 161.397 13.1058 161.251 12.7592C161.109 12.4086 160.913 12.1005 160.659 11.8349C160.404 11.5714 160.108 11.3647 159.768 11.2188C159.427 11.0688 159.032 10.9918 158.584 10.9918Z" fill="#65864F"/>
<path d="M49.6396 34.2594C50.8537 34.2594 51.7962 33.5298 52.1245 32.3542H51.2935C51.0503 33.0534 50.424 33.5034 49.6396 33.5034C48.6403 33.5034 47.9309 32.7656 47.9309 31.7096C47.9309 30.6637 48.6403 29.9158 49.6396 29.9158C50.3774 29.9158 50.9854 30.3171 51.2732 30.9901H52.0678C51.8246 29.8976 50.8435 29.1699 49.6396 29.1699C48.1822 29.1699 47.1465 30.234 47.1465 31.7096C47.1465 33.1953 48.1822 34.2594 49.6396 34.2594Z" fill="#65864F"/>
<path d="M54.7576 34.1374H55.5421V30.0187H57.3642V29.2891H52.9375V30.0187H54.7576V34.1374Z" fill="#65864F"/>
<path d="M58.4205 36.0062H58.9697C59.8758 36.0062 60.3156 35.7812 60.6521 34.8934L62.8756 29.2891H62.0445L61.1385 31.5774L60.5487 33.0814L59.8393 31.5774L58.7468 29.2891H57.8691L60.1656 34.0259L59.9427 34.5955C59.7359 35.1366 59.5211 35.2684 58.8968 35.2684H58.4205V36.0062Z" fill="#65864F"/>
<path d="M63.2578 35.4265H64.024V34.1374H68.2359V35.4265H69.002V33.3996H68.1609V29.2891H64.5368L64.2753 32.5118C64.2388 33.0064 64.1172 33.2597 63.8639 33.3996H63.2578V35.4265ZM64.8266 33.4097C64.9482 33.203 65.0131 32.9598 65.0415 32.6051L65.2563 30.0187H67.3765V33.4097H64.8266Z" fill="#65864F"/>
<path d="M70.189 34.1374H70.9349L73.9063 30.4951V34.1374H74.6907V29.2891H73.9428L70.9734 32.9334V29.2891H70.189V34.1374Z" fill="#65864F"/>
<path d="M79.3694 34.1374H80.1538V29.2891H77.9952C76.9128 29.2891 76.175 29.9154 76.175 30.8863C76.175 31.624 76.6047 32.1673 77.2777 32.3821L76.1284 34.1374H77.0527L78.1269 32.4834H79.3694V34.1374ZM76.9594 30.8863C76.9594 30.3268 77.3506 30.0187 78.0155 30.0187H79.3775V31.7659H78.0155C77.3506 31.7659 76.9594 31.4477 76.9594 30.8863Z" fill="#65864F"/>
<path d="M86.4122 34.2594C87.8675 34.2594 88.9053 33.1953 88.9053 31.7096C88.9053 30.234 87.8675 29.1699 86.4122 29.1699C85.2062 29.1699 84.2252 29.8976 83.982 30.9901H84.7765C85.0664 30.3171 85.6724 29.9158 86.4122 29.9158C87.2797 29.9158 87.9425 30.4854 88.0925 31.3367H85.8406V32.0359H88.0925C87.9608 32.9136 87.298 33.5034 86.4122 33.5034C85.6258 33.5034 85.0015 33.0534 84.7583 32.3542H83.9272C84.2536 33.5298 85.1961 34.2594 86.4122 34.2594Z" fill="#65864F"/>
<path d="M90.3257 34.1374H91.1101V30.0187H93.9396V34.1374H94.724V29.2891H90.3257V34.1374Z" fill="#65864F"/>
<path d="M96.5273 34.1374H97.2732L100.245 30.4951V34.1374H101.029V29.2891H100.281L97.3118 32.9334V29.2891H96.5273V34.1374Z" fill="#65864F"/>
<path d="M102.121 34.1374H102.429C103.316 34.1374 103.785 33.6793 103.858 32.755L104.083 30.0187H106.268V34.1374H107.052V29.2891H103.363L103.083 32.6801C103.037 33.1949 102.84 33.3996 102.382 33.3996H102.121V34.1374Z" fill="#65864F"/>
<path d="M111.732 34.1374H112.517V29.2891H110.358C109.276 29.2891 108.538 29.9154 108.538 30.8863C108.538 31.624 108.968 32.1673 109.64 32.3821L108.491 34.1374H109.415L110.49 32.4834H111.732V34.1374ZM109.322 30.8863C109.322 30.3268 109.713 30.0187 110.378 30.0187H111.74V31.7659H110.378C109.713 31.7659 109.322 31.4477 109.322 30.8863Z" fill="#65864F"/>
<path d="M118.793 35.4265H119.559V33.3996H118.718V29.2891H117.934V33.3996H115.104V29.2891H114.32V34.1374H118.793V35.4265Z" fill="#65864F"/>
<path d="M120.746 34.1374H121.492L124.463 30.4951V34.1374H125.247V29.2891H124.499L121.53 32.9334V29.2891H120.746V34.1374Z" fill="#65864F"/>
<path d="M127.05 34.1374H127.796L130.767 30.4951V34.1374H131.552V29.2891H130.804L127.834 32.9334V29.2891H127.05V34.1374Z" fill="#65864F"/>
<path d="M135.736 34.1374H136.482L139.454 30.4951V34.1374H140.238V29.2891H139.49L136.521 32.9334V29.2891H135.736V34.1374Z" fill="#65864F"/>
<path d="M144.505 34.1384H148.502V33.354H145.328V27.5996H144.505V34.1384Z" fill="#65864F"/>
<path d="M149.81 34.1384H150.633V31.9899H152.023C153.499 31.9899 154.452 31.1406 154.452 29.7947C154.452 28.459 153.499 27.5996 152.023 27.5996H149.81V34.1384ZM150.633 31.2237V28.384H152.005C153.061 28.384 153.61 28.8705 153.61 29.8049C153.61 30.7393 153.061 31.2237 152.005 31.2237H150.633Z" fill="#65864F"/>
<path d="M158.759 34.2595C160.766 34.2595 162.122 32.7373 162.083 30.5888H158.534V31.3732H161.196C161.027 32.6056 160.095 33.4366 158.777 33.4366C157.31 33.4366 156.274 32.3826 156.274 30.8685C156.274 29.3565 157.302 28.3005 158.767 28.3005C159.777 28.3005 160.579 28.795 160.991 29.6362H161.887C161.467 28.3471 160.235 27.4775 158.739 27.4775C156.826 27.4775 155.433 28.9085 155.433 30.8685C155.433 32.8387 156.834 34.2595 158.759 34.2595Z" fill="#65864F"/>
</svg>
